<svg width="26" height="26" viewBox="0 0 26 26" fill="none" xmlns="http://www.w3.org/2000/svg">
    <path fill-rule="evenodd" clip-rule="evenodd" d="M14.5324 13.0003L20.2665 7.26621C20.6901 6.84262 20.6901 6.15796 20.2665 5.73437C19.8429 5.31079 19.1583 5.31079 18.7347 5.73437L13.0006 11.4685L7.26651 5.73437C6.84293 5.31079 6.15826 5.31079 5.73468 5.73437C5.3111 6.15796 5.3111 6.84262 5.73468 7.26621L11.4688 13.0003L5.73468 18.7344C5.3111 19.158 5.3111 19.8426 5.73468 20.2662C5.94593 20.4775 6.22326 20.5836 6.5006 20.5836C6.77793 20.5836 7.05526 20.4775 7.26651 20.2662L13.0006 14.5321L18.7347 20.2662C18.9459 20.4775 19.2233 20.5836 19.5006 20.5836C19.7779 20.5836 20.0553 20.4775 20.2665 20.2662C20.6901 19.8426 20.6901 19.158 20.2665 18.7344L14.5324 13.0003Z" fill="#353F50" />
</svg>