<svg width="25" height="24" viewBox="0 0 25 24" fill="none" xmlns="http://www.w3.org/2000/svg">
<path fill-rule="evenodd" clip-rule="evenodd" d="M12.5 2C15.1888 2 17.3818 4.12231 17.4954 6.78311L17.5 7V10C19.1569 10 20.5 11.3431 20.5 13V19C20.5 20.6569 19.1569 22 17.5 22H7.5C5.84315 22 4.5 20.6569 4.5 19V13C4.5 11.3431 5.84315 10 7.5 10V7C7.5 4.23858 9.73858 2 12.5 2ZM17.5 12H7.5C6.94772 12 6.5 12.4477 6.5 13V19C6.5 19.5523 6.94772 20 7.5 20H17.5C18.0523 20 18.5 19.5523 18.5 19V13C18.5 12.4477 18.0523 12 17.5 12ZM12.6763 4.00509L12.5 4C10.9023 4 9.59634 5.24892 9.50509 6.82373L9.5 7V10H15.5V7C15.5 5.40232 14.2511 4.09634 12.6763 4.00509L12.5 4L12.6763 4.00509Z" fill="#353F50"/>
</svg>
