<svg width="48" height="49" viewBox="0 0 48 49" fill="none" xmlns="http://www.w3.org/2000/svg">
<path d="M35.4137 25.0864C35.2281 24.9005 35.0077 24.753 34.7651 24.6524C34.5224 24.5518 34.2624 24.5 33.9997 24.5C33.737 24.5 33.4769 24.5518 33.2343 24.6524C32.9917 24.753 32.7713 24.9005 32.5857 25.0864L29.3977 28.2744C27.9197 27.8344 25.1617 26.8344 23.4137 25.0864C21.6657 23.3384 20.6657 20.5804 20.2257 19.1024L23.4137 15.9144C23.5996 15.7288 23.7471 15.5084 23.8477 15.2658C23.9483 15.0232 24.0001 14.7631 24.0001 14.5004C24.0001 14.2377 23.9483 13.9776 23.8477 13.735C23.7471 13.4924 23.5996 13.272 23.4137 13.0864L15.4137 5.0864C15.2281 4.90051 15.0077 4.75304 14.7651 4.65241C14.5224 4.55179 14.2624 4.5 13.9997 4.5C13.737 4.5 13.4769 4.55179 13.2343 4.65241C12.9917 4.75304 12.7713 4.90051 12.5857 5.0864L7.16169 10.5104C6.40169 11.2704 5.97369 12.3144 5.98969 13.3804C6.03569 16.2284 6.78969 26.1204 14.5857 33.9164C22.3817 41.7124 32.2737 42.4644 35.1237 42.5124H35.1797C36.2357 42.5124 37.2337 42.0964 37.9897 41.3404L43.4137 35.9164C43.5996 35.7308 43.7471 35.5104 43.8477 35.2678C43.9483 35.0252 44.0001 34.7651 44.0001 34.5024C44.0001 34.2397 43.9483 33.9796 43.8477 33.737C43.7471 33.4944 43.5996 33.274 43.4137 33.0884L35.4137 25.0864ZM35.1597 38.5104C32.6637 38.4684 24.1237 37.7984 17.4137 31.0864C10.6817 24.3544 10.0297 15.7844 9.98969 13.3384L13.9997 9.3284L19.1717 14.5004L16.5857 17.0864C16.3506 17.3213 16.1778 17.6111 16.0828 17.9295C15.9878 18.248 15.9737 18.5851 16.0417 18.9104C16.0897 19.1404 17.2637 24.5944 20.5837 27.9144C23.9037 31.2344 29.3577 32.4084 29.5877 32.4564C29.9128 32.5263 30.2502 32.5133 30.569 32.4186C30.8877 32.3239 31.1775 32.1505 31.4117 31.9144L33.9997 29.3284L39.1717 34.5004L35.1597 38.5104Z" fill="#000"/>
</svg>
