<svg width="24" height="24" viewBox="0 0 24 24" fill="none" xmlns="http://www.w3.org/2000/svg">
<path fill-rule="evenodd" clip-rule="evenodd" d="M11.594 2.08736C11.8156 1.98891 12.064 1.97485 12.2933 2.04517L12.4061 2.08736L21.4061 6.08614C21.768 6.24697 21.9975 6.60402 22 6.99296L21.9939 7.11043L21.4215 12.2621C21.1289 14.8953 19.6919 17.2604 17.5025 18.7341L17.2465 18.9002L12.53 21.848C12.2418 22.0281 11.8847 22.0482 11.5811 21.908L11.47 21.848L6.75352 18.9002C4.50678 17.496 2.99741 15.1764 2.61737 12.5647L2.57855 12.2621L2.00615 7.11043C1.96241 6.71676 2.15496 6.33854 2.48948 6.14011L2.594 6.08614L11.594 2.08736ZM12 4.09548L4.07472 7.61677L4.56632 12.0412C4.79237 14.0756 5.89664 15.9042 7.58035 17.0519L7.81352 17.2042L12 19.8208L16.1866 17.2042C17.9223 16.1193 19.0922 14.332 19.3975 12.3173L19.4337 12.0412L19.9253 7.61677L12 4.09548ZM14.2137 8.38222C14.5549 7.94795 15.1835 7.87251 15.6178 8.21372C16.0187 8.52869 16.1138 9.08857 15.8577 9.51441L15.7863 9.61786L11.7863 14.6178C11.4424 15.0555 10.815 15.1229 10.3877 14.7908L10.2929 14.7071L8.29293 12.7071C7.9024 12.3166 7.9024 11.6834 8.29293 11.2929C8.65341 10.9324 9.22064 10.9047 9.61293 11.2097L9.70714 11.2929L10.9101 12.4959L14.2137 8.38222Z" fill="#353F50"/>
</svg>
